<?xml version="1.0" standalone="no"?>
<!DOCTYPE svg PUBLIC "-//W3C//DTD SVG 20010904//EN"
 "http://www.w3.org/TR/2001/REC-SVG-20010904/DTD/svg10.dtd">
<svg version="1.0" xmlns="http://www.w3.org/2000/svg"
 width="240.000000pt" height="240.000000pt" viewBox="0 0 240.000000 240.000000"
 preserveAspectRatio="xMidYMid meet">

<g transform="translate(0.000000,240.000000) scale(0.100000,-0.100000)"
fill="#000000" stroke="none">
<path d="M1321 2316 c-8 -9 -26 -12 -60 -8 -40 3 -52 1 -70 -17 -25 -25 -28
-86 -6 -118 13 -18 12 -22 -5 -38 -11 -10 -20 -29 -20 -42 0 -29 -7 -29 -37
-1 -16 15 -40 23 -78 26 -52 4 -56 3 -90 -31 -19 -19 -35 -42 -35 -51 0 -9 -3
-16 -6 -16 -14 0 -49 55 -46 72 4 23 -32 84 -56 93 -71 29 -149 20 -182 -23
-40 -50 -17 -132 37 -132 19 0 20 -3 10 -30 -11 -29 -27 -41 -27 -20 0 15 -56
40 -90 40 -22 0 -41 -10 -62 -31 -22 -21 -34 -27 -41 -20 -14 14 -98 14 -134
0 -43 -16 -83 -59 -83 -89 0 -23 -4 -26 -34 -27 -30 -1 -35 3 -40 28 -8 39
-52 51 -76 21 -15 -18 -16 -30 -8 -74 12 -66 45 -129 77 -144 53 -27 121 28
121 97 0 22 3 39 8 39 16 0 27 -17 29 -44 5 -68 87 -92 138 -41 21 20 25 34
25 80 0 52 1 55 25 55 17 0 29 9 40 30 9 17 19 30 24 30 14 0 31 -50 31 -93 0
-47 13 -67 45 -67 28 0 45 18 45 50 l1 25 15 -27 c22 -41 63 -38 107 9 34 35
35 36 46 15 14 -26 53 -29 71 -7 7 8 10 27 7 42 l-5 28 20 -28 c42 -58 93 -55
124 6 16 30 17 30 25 10 14 -38 72 -41 83 -5 3 10 2 41 -3 70 -4 28 -5 52 -2
52 15 -1 38 -28 50 -57 27 -65 122 -65 177 -1 18 23 25 40 22 60 -3 16 -2 27
1 25 33 -19 130 -59 151 -63 45 -10 64 19 56 87 -5 52 -4 57 16 63 12 3 23 4
24 3 1 -1 5 -24 8 -50 7 -61 11 -67 45 -67 39 0 55 22 47 65 -5 23 -1 52 10
84 17 46 17 50 0 75 -35 54 -106 54 -156 1 -21 -22 -25 -23 -44 -10 -54 39
-127 -2 -143 -79 -11 -53 -27 -55 -42 -6 -8 29 -18 41 -36 46 l-25 6 24 29
c32 38 40 64 26 89 -12 23 -52 27 -69 6z m57 -28 c2 -11 -17 -38 -47 -68 -40
-40 -57 -50 -84 -50 -18 0 -38 5 -45 12 -17 17 -15 74 4 92 19 20 63 21 90 1
20 -13 22 -12 33 11 13 28 44 29 49 2z m362 -38 c11 -6 25 -20 31 -31 10 -20
2 -55 -31 -119 -4 -9 -1 -19 8 -26 20 -14 9 -44 -17 -44 -20 0 -36 26 -21 35
6 4 5 14 -2 25 -10 15 -10 27 1 52 19 48 18 62 -2 66 -12 2 -22 -7 -33 -33
-18 -44 -39 -41 -39 5 0 28 7 39 34 57 38 26 45 27 71 13z m-162 -42 c15 -18
42 -129 42 -171 0 -45 -18 -52 -81 -28 -64 25 -99 48 -99 66 0 26 19 26 71 0
53 -27 66 -27 56 0 -4 9 -19 15 -38 15 -36 0 -69 24 -69 51 0 10 12 31 26 48
27 33 73 42 92 19z m-772 -44 c27 -18 50 -62 38 -73 -5 -4 -48 -16 -96 -26
-98 -20 -118 -14 -118 34 0 75 102 113 176 65z m583 -59 c17 -67 14 -129 -7
-148 -49 -45 -112 -40 -135 10 -6 16 -27 42 -44 59 -41 39 -41 57 -4 95 22 22
39 29 68 29 22 0 44 -5 51 -12 9 -9 12 -8 12 4 0 20 21 29 36 16 7 -5 17 -28
23 -53z m-280 -30 c44 -38 75 -161 45 -185 -21 -19 -32 -3 -40 58 -5 34 -10
47 -12 33 -4 -26 -47 -99 -70 -118 -47 -39 -120 113 -86 178 32 63 109 79 163
34z m-220 -74 c28 -111 33 -143 23 -153 -18 -18 -41 -1 -48 36 -6 34 -24 51
-24 23 0 -21 -70 -97 -89 -97 -22 0 -61 94 -61 148 0 55 63 108 85 72 4 -6 16
-3 31 9 35 28 71 11 83 -38z m-285 -13 c37 -16 68 -86 64 -145 -3 -40 -6 -48
-23 -48 -15 0 -21 8 -23 30 -6 68 -14 97 -33 116 -17 17 -23 18 -36 8 -8 -7
-19 -24 -24 -37 -11 -29 -43 -26 -47 4 -4 26 49 84 77 84 11 0 31 -5 45 -12z
m-158 -39 c10 -17 -12 -31 -56 -35 -43 -4 -86 -22 -76 -31 3 -3 25 -1 50 6 24
6 52 8 61 5 35 -14 48 -113 18 -146 -18 -20 -73 -24 -91 -6 -16 16 -15 71 1
87 10 10 5 11 -24 6 -39 -7 -69 12 -69 44 0 18 30 50 65 69 26 15 112 15 121
1z m-312 -55 c11 -4 16 -19 16 -46 0 -22 3 -38 8 -36 4 2 19 10 34 17 25 13
30 12 48 -4 59 -53 -22 -163 -84 -114 -36 28 -71 147 -53 177 9 14 10 14 31 6z"/>
<path d="M1240 2230 c0 -13 5 -20 13 -17 6 2 12 10 12 17 0 7 -6 15 -12 18 -8
2 -13 -5 -13 -18z"/>
<path d="M1521 2162 c-8 -15 -8 -23 0 -28 17 -10 33 11 21 32 -9 16 -10 16
-21 -4z"/>
<path d="M692 2128 c-22 -22 -12 -30 31 -23 52 9 63 15 46 26 -20 13 -63 11
-77 -3z"/>
<path d="M1325 2097 c-6 -12 -26 -30 -45 -40 l-35 -18 41 7 c54 8 67 -10 28
-41 -25 -20 -26 -24 -12 -30 22 -9 58 12 58 33 -1 9 -6 38 -13 64 -11 42 -14
45 -22 25z"/>
<path d="M1258 2103 c7 -3 16 -2 19 1 4 3 -2 6 -13 5 -11 0 -14 -3 -6 -6z"/>
<path d="M1008 2046 c-10 -7 -18 -17 -18 -22 0 -4 5 -3 12 4 17 17 58 15 81
-5 19 -17 20 -17 9 3 -18 35 -54 43 -84 20z"/>
<path d="M1027 1994 c-8 -8 1 -24 14 -24 5 0 9 7 9 15 0 15 -12 20 -23 9z"/>
<path d="M830 1998 c0 -7 5 -20 10 -28 8 -12 10 -11 10 7 0 12 -4 25 -10 28
-5 3 -10 0 -10 -7z"/>
<path d="M755 1890 c3 -5 8 -10 11 -10 2 0 4 5 4 10 0 6 -5 10 -11 10 -5 0 -7
-4 -4 -10z"/>
<path d="M386 1794 c-9 -22 -8 -24 9 -24 8 0 15 9 15 20 0 24 -15 27 -24 4z"/>
<path d="M191 1776 c-11 -13 -11 -20 -3 -28 8 -8 13 -7 18 5 10 27 0 41 -15
23z"/>
<path d="M768 1704 c-31 -16 -58 -61 -58 -94 0 -12 7 -34 16 -50 59 -99 203
-67 204 46 0 52 -28 90 -78 104 -47 13 -51 12 -84 -6z m127 -59 c0 -21 -31
-33 -46 -18 -5 5 -7 17 -3 27 9 24 49 17 49 -9z"/>
<path d="M1308 1704 c-55 -29 -74 -104 -38 -154 42 -60 128 -64 174 -9 77 91
-31 221 -136 163z m40 -67 c4 -21 -25 -34 -40 -19 -8 8 -8 16 2 27 16 19 34
15 38 -8z"/>
</g>
</svg>
