<?xml version="1.0" standalone="no"?>
<!DOCTYPE svg PUBLIC "-//W3C//DTD SVG 20010904//EN"
 "http://www.w3.org/TR/2001/REC-SVG-20010904/DTD/svg10.dtd">
<svg version="1.0" xmlns="http://www.w3.org/2000/svg"
 width="240.000000pt" height="240.000000pt" viewBox="0 0 240.000000 240.000000"
 preserveAspectRatio="xMidYMid meet">

<g transform="translate(0.000000,240.000000) scale(0.100000,-0.100000)"
fill="#000000" stroke="none">
<path d="M1357 2348 c-10 -8 -17 -31 -19 -63 l-3 -50 -42 -3 c-38 -3 -43 -6
-43 -28 l0 -24 135 0 135 0 0 24 c0 22 -5 25 -42 28 l-43 3 -3 50 c-3 48 -20
75 -47 75 -6 0 -19 -6 -28 -12z"/>
<path d="M910 2324 c-6 -14 -10 -32 -10 -40 0 -22 -89 -19 -97 4 -4 9 -10 19
-14 22 -6 4 -199 5 -232 1 -5 -1 -7 -11 -5 -23 2 -17 11 -24 31 -26 23 -3 27
-8 27 -35 -1 -51 -26 -177 -48 -238 -21 -60 -16 -85 14 -75 17 5 19 1 16 -55
-5 -83 4 -126 28 -134 34 -11 60 12 60 51 0 41 21 43 30 3 7 -28 57 -40 71
-17 5 7 9 50 9 95 0 72 3 84 20 93 19 10 19 6 22 -117 l3 -128 38 -3 c32 -3
39 0 44 17 5 20 13 21 123 21 100 0 119 3 124 16 10 27 -13 44 -60 44 -40 0
-44 2 -44 24 0 21 5 25 38 28 29 2 38 8 40 25 3 19 -2 22 -35 25 -33 3 -38 6
-38 28 0 22 5 25 38 28 33 3 38 6 35 25 -2 17 -11 23 -40 25 -33 3 -38 7 -38
28 0 22 4 24 44 24 31 0 46 5 50 16 10 26 -2 34 -50 34 -44 0 -44 0 -44 35 0
43 -25 60 -65 45 -23 -9 -26 -8 -21 6 3 8 6 18 6 20 0 2 23 4 50 4 49 0 50 -1
50 -30 0 -38 35 -59 69 -40 19 10 22 18 19 63 l-3 52 -84 3 c-79 3 -83 4 -78
24 10 35 -10 58 -49 58 -28 0 -36 -5 -44 -26z m-137 -108 c-6 -52 10 -86 40
-86 32 0 47 18 47 57 0 23 5 33 15 33 21 0 12 -36 -35 -137 -37 -78 -68 -112
-55 -60 4 12 1 35 -4 50 -9 24 -16 27 -54 27 -24 0 -46 2 -49 5 -4 4 14 96 28
143 2 6 19 12 37 12 l35 0 -5 -44z m193 -104 c-12 -11 -18 7 -10 30 l8 23 4
-23 c2 -13 1 -26 -2 -30z m4 -77 c0 -20 -5 -25 -25 -25 -20 0 -25 5 -25 25 0
20 5 25 25 25 20 0 25 -5 25 -25z m-262 -83 c2 -77 0 -92 -13 -92 -12 0 -15
16 -15 96 0 72 3 95 13 92 8 -3 13 -34 15 -96z m257 -22 c0 -29 -32 -41 -41
-16 -9 24 4 48 23 44 12 -2 18 -12 18 -28z m5 -103 c0 -30 -6 -36 -31 -30 -12
3 -19 14 -19 29 0 19 5 24 25 24 20 0 25 -5 25 -23z"/>
<path d="M1632 2338 c-7 -7 -12 -18 -12 -25 0 -26 -48 -119 -82 -160 -31 -36
-38 -40 -48 -28 -18 22 -192 21 -210 0 -10 -12 -10 -18 0 -31 11 -12 33 -15
109 -14 53 1 104 -1 113 -5 24 -10 77 25 136 89 l49 54 47 -64 c26 -35 60 -71
77 -79 27 -14 30 -14 49 5 32 32 25 57 -22 86 -73 45 -126 102 -120 130 2 13
-1 31 -8 39 -15 18 -61 20 -78 3z"/>
<path d="M1647 2133 c-12 -15 -48 -53 -79 -85 -37 -37 -55 -64 -52 -73 8 -20
17 -19 74 10 58 29 140 104 140 128 0 15 -36 47 -53 47 -5 0 -18 -12 -30 -27z"/>
<path d="M1686 2008 c-25 -29 -72 -71 -103 -94 -64 -45 -75 -70 -29 -67 70 5
236 121 236 166 0 15 -35 47 -51 47 -4 0 -28 -24 -53 -52z"/>
<path d="M1274 2025 c-11 -29 7 -35 111 -35 104 0 119 5 107 38 -7 19 -211 17
-218 -3z"/>
<path d="M1282 1938 c-18 -18 -16 -212 2 -227 24 -20 70 -10 74 17 4 29 52 32
52 3 0 -34 63 -43 80 -12 5 11 10 59 10 106 0 124 -1 125 -113 125 -59 0 -97
-4 -105 -12z m123 -88 c0 -38 -3 -45 -20 -45 -15 0 -21 8 -23 33 -4 45 4 64
25 60 14 -3 18 -13 18 -48z"/>
<path d="M1718 1876 c-48 -52 -87 -84 -138 -110 -39 -21 -69 -43 -67 -49 7
-22 82 -11 151 21 40 19 91 54 126 88 60 57 73 87 48 112 -25 25 -54 10 -120
-62z"/>
<path d="M1373 1596 c-10 -13 -28 -26 -40 -30 -18 -6 -61 -49 -103 -103 -5 -6
-31 -11 -58 -11 -52 -1 -153 -24 -211 -48 -19 -8 -36 -12 -38 -10 -10 10 21
93 44 118 30 31 27 57 -9 77 -46 26 -72 5 -99 -81 -13 -40 -23 -94 -23 -119
-1 -43 -4 -48 -62 -96 -71 -59 -104 -98 -141 -161 -15 -26 -28 -48 -29 -50 -7
-10 -87 43 -96 63 -6 14 -20 27 -30 31 -27 8 -68 -22 -68 -50 0 -25 28 -56 51
-56 8 0 39 -12 67 -26 52 -26 52 -26 45 -63 -9 -40 -11 -217 -3 -270 5 -31 2
-35 -24 -42 -24 -7 -33 -3 -57 22 -15 17 -40 54 -54 84 -15 30 -35 55 -46 58
-21 6 -52 -19 -46 -36 6 -18 27 -20 27 -2 0 13 4 14 20 5 11 -6 20 -19 20 -28
0 -31 50 -120 77 -137 18 -12 38 -16 64 -12 22 3 39 2 39 -3 0 -12 -28 -20
-71 -20 -30 0 -47 8 -78 35 -21 19 -46 35 -55 35 -13 0 -16 5 -11 19 4 13 0
23 -12 30 -15 9 -16 12 -3 20 12 8 12 13 -4 30 -24 26 -39 27 -31 2 3 -11 1
-22 -5 -26 -13 -8 -13 -45 0 -45 6 0 15 -11 20 -25 5 -14 17 -25 28 -25 10 0
33 -16 52 -35 43 -45 93 -61 143 -47 36 10 38 9 53 -21 16 -30 16 -31 -7 -49
-97 -74 -119 -96 -119 -117 0 -50 69 -51 95 -2 8 16 28 39 44 50 l29 21 51
-52 50 -53 -25 -26 c-17 -18 -27 -41 -28 -65 -2 -22 -7 -47 -11 -58 -12 -28 8
-51 47 -54 49 -4 72 20 64 68 -5 30 -2 41 17 57 43 40 57 42 152 22 50 -10
138 -22 198 -26 l107 -8 -51 -80 c-55 -85 -63 -120 -33 -142 43 -32 116 7 120
64 1 17 20 63 43 101 40 69 43 71 89 78 32 4 67 21 110 50 35 24 66 44 71 44
15 0 60 -56 66 -83 9 -33 38 -51 70 -43 43 11 40 40 -11 103 -25 32 -55 65
-66 74 -20 15 -19 17 21 97 46 92 76 191 86 287 l8 67 95 -3 c94 -4 96 -3 110
22 13 22 13 29 1 55 l-14 29 -100 -4 -100 -3 -23 75 c-12 42 -35 98 -52 126
l-29 51 59 30 c33 16 71 30 84 30 36 0 51 32 31 69 -18 36 -50 48 -73 28 -9
-9 -37 -23 -62 -33 -25 -9 -58 -26 -73 -37 l-28 -19 -27 25 c-43 40 -142 96
-202 114 -30 8 -57 17 -58 19 -7 5 63 63 91 75 35 15 46 53 22 79 -24 27 -60
25 -82 -4z m57 -31 c0 -8 -4 -15 -9 -15 -5 0 -35 -23 -65 -51 -38 -35 -61 -49
-73 -45 -14 6 -13 9 6 30 13 13 43 35 67 48 24 12 44 29 44 35 0 7 7 13 15 13
8 0 15 -7 15 -15z m-475 -6 c4 -6 -2 -20 -14 -33 -23 -24 -51 -97 -51 -132 0
-13 -4 -24 -10 -24 -15 0 -11 69 6 115 8 22 17 49 18 60 4 26 3 25 25 25 11 0
23 -5 26 -11z m388 -184 c171 -44 301 -166 358 -332 34 -99 32 -270 -4 -405
-26 -99 -93 -242 -127 -273 -41 -37 -360 -58 -525 -35 -38 6 -119 22 -180 35
-124 28 -132 34 -184 140 -44 90 -62 167 -68 296 -5 101 -3 126 16 187 52 171
197 307 400 373 101 33 221 38 314 14z m497 -51 c0 -8 -8 -14 -19 -14 -10 0
-48 -15 -85 -33 -36 -19 -68 -31 -71 -29 -16 17 3 33 68 58 39 15 76 31 81 35
12 11 26 2 26 -17z m-1355 -205 c16 -31 16 -31 -7 -24 -32 10 -42 21 -35 39
10 25 25 19 42 -15z m105 -69 c0 -5 -2 -10 -4 -10 -3 0 -8 5 -11 10 -3 6 -1
10 4 10 6 0 11 -4 11 -10z m1400 -129 c-1 -21 -25 -29 -102 -33 -87 -4 -88 -4
-88 19 0 22 3 23 69 23 50 0 72 4 82 16 12 14 14 14 26 -2 7 -10 13 -20 13
-23z m-1365 -466 c-16 -13 -33 -24 -37 -25 -4 0 -15 -14 -23 -31 -10 -19 -22
-29 -33 -27 -24 5 -21 32 3 37 11 2 22 6 25 10 11 14 76 61 85 61 6 0 -3 -11
-20 -25z m1072 -104 c21 -27 46 -51 56 -54 23 -7 22 -27 -3 -27 -12 0 -26 12
-36 33 -9 17 -30 47 -47 65 -17 17 -26 32 -19 32 6 0 29 -22 49 -49z m-899
-62 c-25 -25 -30 -36 -25 -63 3 -19 0 -39 -6 -45 -14 -14 -47 -15 -47 -1 0 6
7 10 15 10 11 0 14 11 12 47 -2 43 1 48 32 70 45 31 57 20 19 -18z m516 -91
c-18 -35 -34 -75 -34 -90 0 -29 -31 -54 -56 -44 -10 4 -5 18 24 59 21 30 46
73 56 96 11 22 25 41 31 41 8 0 0 -24 -21 -62z"/>
<path d="M1320 1073 c0 -15 -2 -16 -10 -3 -9 13 -11 13 -20 0 -6 -8 -9 -26 -8
-40 3 -21 -2 -26 -27 -28 -40 -5 -55 -19 -55 -52 0 -53 95 -84 122 -40 16 25
25 25 33 0 10 -33 25 -12 24 33 0 45 -16 134 -18 104 -2 -27 -21 -10 -21 19 0
13 -4 24 -10 24 -5 0 -10 -8 -10 -17z m-30 -118 c14 -17 5 -35 -18 -35 -27 0
-45 17 -39 34 8 20 41 21 57 1z"/>
<path d="M1400 976 c0 -47 5 -88 10 -91 6 -4 10 27 10 84 0 54 -4 91 -10 91
-6 0 -10 -35 -10 -84z"/>
<path d="M1435 994 c-7 -48 1 -120 15 -129 12 -7 20 60 13 116 -8 65 -19 70
-28 13z"/>
<path d="M906 984 c-19 -18 -21 -55 -4 -72 28 -28 98 -6 98 32 0 47 -61 73
-94 40z m59 -24 c8 -13 -14 -42 -26 -34 -5 3 -9 14 -9 25 0 20 24 26 35 9z"/>
<path d="M1576 808 c-4 -9 -6 -29 -4 -45 6 -55 68 -34 68 23 0 30 -20 41 -27
15 -7 -28 -21 -27 -26 2 -3 18 -5 19 -11 5z"/>
<path d="M683 774 c-7 -20 13 -64 30 -64 19 0 37 21 37 44 0 19 0 19 -14 1
-12 -17 -13 -17 -20 8 -7 30 -23 35 -33 11z"/>
<path d="M1015 766 c-22 -33 -32 -170 -15 -191 18 -22 164 -13 191 11 22 19
25 68 8 127 -17 61 -39 77 -109 77 -52 0 -62 -3 -75 -24z m141 -41 c7 -19 14
-52 14 -73 0 -32 -5 -41 -25 -50 -27 -13 -83 -16 -108 -6 -12 4 -14 18 -10 67
8 87 15 97 69 97 42 0 46 -2 60 -35z"/>
<path d="M1366 701 c-10 -11 -28 -21 -40 -23 -62 -9 6 -143 96 -189 66 -34
208 -17 208 25 0 22 -11 25 -45 10 -19 -8 -49 -14 -67 -14 -43 0 -115 36 -135
69 -9 14 -26 36 -37 49 l-19 22 21 0 c12 0 23 8 27 20 8 26 21 26 28 -1 4 -16
11 -19 27 -14 21 7 21 6 5 -19 -35 -53 16 -106 101 -106 71 0 77 16 10 30 -29
6 -62 17 -71 24 -16 12 -17 17 -6 44 17 40 8 62 -23 62 -13 0 -26 7 -30 15 -8
21 -29 19 -50 -4z"/>
<path d="M886 543 c-9 -10 -7 -52 4 -74 12 -21 49 -26 54 -6 13 39 15 67 7 67
-5 0 -13 -9 -16 -20 -9 -28 -25 -25 -25 4 0 26 -12 40 -24 29z"/>
</g>
</svg>
